<?xml version="1.0" encoding="utf-8"?>
<!-- Generator: Adobe Illustrator 16.0.0, SVG Export Plug-In . SVG Version: 6.00 Build 0)  -->
<!DOCTYPE svg PUBLIC "-//W3C//DTD SVG 1.1//EN" "http://www.w3.org/Graphics/SVG/1.1/DTD/svg11.dtd">
<svg version="1.1" xmlns="http://www.w3.org/2000/svg" xmlns:xlink="http://www.w3.org/1999/xlink" x="0px" y="0px"
	 width="999.947px" height="249.175px" viewBox="0 0 999.947 249.175" enable-background="new 0 0 999.947 249.175"
	 xml:space="preserve">
<g id="Flag">
	<path fill="#C6C4C4" d="M945.219,188.716"/>
	<path fill="#C6C4C4" d="M337.022,232.272"/>
	<path fill="#C6C4C4" d="M826.152,226.045c0-9.087-10.766-21.098-24.044-21.098H198.995c-13.281,0-24.045,12-24.045,21.098V33.386
		C174.949,14.948,185.713,0,198.995,0h603.113c13.278,0,24.044,14.948,24.044,33.386V226.045z"/>
	<polygon fill="#C6C5C4" points="176.083,53.121 1.394,53.121 176.083,151.02 	"/>
	<polygon fill="#C6C5C4" points="825.862,53.124 1000.551,53.124 825.862,151.023 	"/>
	<polygon fill="#C6C5C4" points="825.862,248.922 999.657,248.922 825.862,151.022 	"/>
	<polygon fill="#C6C5C4" points="176.083,248.919 1.134,248.919 176.083,151.02 	"/>
	<path fill="#C6C5C4" d="M305.161,226.806c0-12.213-6.827-22.258-15.289-22.258l-113.789,0.145v22.113c0,12.215,0,22.113,0,22.113
		H289.84C298.301,248.919,305.161,239.021,305.161,226.806L305.161,226.806z"/>
	<path fill="#C6C4C4" d="M697.627,226.666c0,12.213,6.824,22.258,15.289,22.258l113.785-0.145v-22.113c0-12.215,0-22.113,0-22.113
		H712.946C704.485,204.552,697.627,214.451,697.627,226.666L697.627,226.666z"/>
	<path fill="#282828" d="M305.06,229.345c0-5.824,0.747-15.525-10.447-24.654h-94.484c-9.882-0.143-24.045,0.002-24.054,10.424
		l0.008,2.748c0,0,0,7.926,10.548,7.926h107.981c5.826,0,10.548,1.018,9.864,7.566L305.06,229.345z"/>
	<path fill="#262626" d="M708.086,205.123h94.484c9.883-0.143,24.047,0.002,24.055,10.424l-0.008,2.748c0,0,0,7.926-10.549,7.926
		H708.086c-5.828,0-10.414,0.554-9.73,7.101C698.356,233.321,693.379,215.961,708.086,205.123z"/>
</g>
<g id="Text">
	<rect x="256.471" y="58.31" fill="none" width="504.659" height="103.521"/>
	<text transform="matrix(1 0 0 1 256.4717 135.9883)" fill="#282828" font-family="'KeplerStd-BoldIt'" font-size="116.4595">gitGuiden</text>
</g>
</svg>
